<svg width="539" height="131" viewBox="0 0 539 131" fill="none" xmlns="http://www.w3.org/2000/svg">
<path d="M43.1406 98C41.5781 98 40.7969 97.1406 40.7969 95.4219V33.3594C40.7969 31.6406 41.5781 30.7812 43.1406 30.7812H47.4531C49.0156 30.7812 49.7969 31.6406 49.7969 33.3594V95.4219C49.7969 97.1406 49.0156 98 47.4531 98H43.1406ZM68.0781 98C66.5156 98 65.7344 97.1406 65.7344 95.4219V33.3594C65.7344 31.6406 66.5156 30.7812 68.0781 30.7812H74.0781C76.2656 30.7812 77.8281 31.5625 78.7656 33.125L108.109 82.2969H108.297C108.234 81.0469 108.203 79.7969 108.203 78.5469V33.3594C108.203 31.6406 108.984 30.7812 110.547 30.7812H114.859C116.422 30.7812 117.203 31.6406 117.203 33.3594V95.4219C117.203 97.1406 116.422 98 114.859 98H110.734C108.547 98 106.984 97.2188 106.047 95.6562L74.8281 43.4844H74.6406C74.7031 44.7344 74.7344 45.9844 74.7344 47.2344V95.4219C74.7344 97.1406 73.9531 98 72.3906 98H68.0781Z" fill="black"/>
<path d="M364.766 98C363.203 98 362.422 97.1406 362.422 95.4219V33.3594C362.422 31.6406 363.203 30.7812 364.766 30.7812H369.078C370.641 30.7812 371.422 31.6406 371.422 33.3594V95.4219C371.422 97.1406 370.641 98 369.078 98H364.766ZM383.656 38.8438C381.938 38.8438 381.078 38.1406 381.078 36.7344V32.8906C381.078 31.4844 381.938 30.7812 383.656 30.7812H433.25C434.969 30.7812 435.828 31.4844 435.828 32.8906V36.7344C435.828 38.1406 434.969 38.8438 433.25 38.8438H412.953V95.4219C412.953 97.1406 412.172 98 410.609 98H406.297C404.734 98 403.953 97.1406 403.953 95.4219V38.8438H383.656ZM442.062 33.875C440.719 31.8125 441.141 30.7812 443.328 30.7812H448.578C449.953 30.7812 451.078 31.5469 451.953 33.0781L463.859 53.5625C465.172 55.8125 466.297 57.7812 467.234 59.4688C468.172 61.125 469.078 62.8906 469.953 64.7656H470.141C471.016 62.8906 471.922 61.125 472.859 59.4688C473.797 57.7812 474.922 55.8125 476.234 53.5625L488.141 33.0781C489.016 31.5469 490.141 30.7812 491.516 30.7812H496.766C498.953 30.7812 499.375 31.8125 498.031 33.875L474.547 70.3438V95.4219C474.547 97.1406 473.766 98 472.203 98H467.891C466.328 98 465.547 97.1406 465.547 95.4219V70.3438L442.062 33.875Z" fill="black"/>
<rect x="139" y="16" width="100" height="100" fill="#EEA942"/>
<path d="M171.484 98C169.922 98 169.141 97.1406 169.141 95.4219V33.3594C169.141 31.6406 169.922 30.7812 171.484 30.7812H209.688C211.406 30.7812 212.266 31.4844 212.266 32.8906V36.3594C212.266 37.7656 211.406 38.4688 209.688 38.4688H178.141V60.6875H205.656C207.375 60.6875 208.234 61.3906 208.234 62.7969V66.2656C208.234 67.6719 207.375 68.375 205.656 68.375H178.141V95.4219C178.141 97.1406 177.359 98 175.797 98H171.484Z" fill="black"/>
<rect x="239" y="16" width="100" height="100" fill="#5189CE"/>
<path d="M273.172 96.6406C271.734 95.8594 271.297 94.8438 271.859 93.5938L273.406 90.2656C274.094 88.7656 275.234 88.5469 276.828 89.6094C279.359 91.2656 281.891 92.0938 284.422 92.0938C287.453 92.0938 289.422 91.0781 290.328 89.0469C291.234 86.9844 291.688 84.0625 291.688 80.2812V33.3594C291.688 31.6406 292.469 30.7812 294.031 30.7812H298.344C299.906 30.7812 300.688 31.6406 300.688 33.3594V79.2031C300.688 85.3906 299.719 90.3125 297.781 93.9688C295.844 97.5938 291.312 99.4062 284.188 99.4062C280.281 99.4062 276.609 98.4844 273.172 96.6406Z" fill="black"/>
</svg>
